<svg width="997" height="154" viewBox="0 0 997 154" fill="none" xmlns="http://www.w3.org/2000/svg">
<g clip-path="url(#clip0_60_162)">
<path d="M184.85 41.05C183.67 42.12 153.53 64.53 112.85 47.05C58.5 23.63 23.07 56.5 21.55 57.98C21.3462 58.2018 21.1559 58.4355 20.98 58.68C20.629 58.8907 20.2947 59.1281 19.98 59.39C7.86999 69.53 1.48999 81.86 1.48999 95C1.48999 127.75 41.26 153.4 92.03 153.4C142.49 153.4 182.08 128.06 182.57 95.61C183.488 85.3511 180.479 75.126 174.15 67C187.88 61.78 196 54.5 196.67 53.85C198.367 52.2826 199.373 50.1051 199.464 47.7965C199.556 45.4879 198.727 43.2374 197.16 41.54C195.593 39.8426 193.415 38.8374 191.106 38.7455C188.798 38.6536 186.547 39.4826 184.85 41.05ZM92 136C58.06 136 28.66 122.23 20.9 104.34C27.77 98.4 52.63 80.77 87.9 99.34C104.67 108.16 119.63 111.19 132.28 111.19C142.808 111.221 153.225 109.044 162.86 104.8C154.87 122.45 125.67 136 92 136ZM96.09 83.9C66.2 68.18 40.09 73.14 22.84 82.07C25.1218 78.5189 27.9383 75.3415 31.19 72.65C31.588 72.3121 31.953 71.9371 32.28 71.53C32.8031 71.2067 33.2922 70.8315 33.74 70.41C34.92 69.27 63.1 42.89 105.46 62.77C121.85 70.46 136.59 72.77 149.22 72.17C151.03 72.09 152.8 71.95 154.52 71.76C158.803 74.9961 162.089 79.3732 164 84.39C158 88.62 133 103.29 96.09 83.9Z" fill="black"/>
<path d="M14.77 39.08C16 38 48.8 4.48 101.26 24C118.83 30.53 132.4 34 145 33.4C173.68 32.09 191.4 16.04 192.45 15.07C194.147 13.5026 195.153 11.3251 195.244 9.01648C195.336 6.70791 194.507 4.45739 192.94 2.76C191.373 1.06261 189.195 0.0574077 186.886 -0.0344852C184.578 -0.126378 182.327 0.70257 180.63 2.27C179.45 3.34 149.63 24.53 108.63 8.27C47.1 -16.29 4.11998 25.13 2.59998 26.61C0.946356 28.2238 0.0015553 30.4285 -0.0265752 32.7389C-0.0547056 35.0494 0.836138 37.2764 2.44998 38.93C4.06382 40.5836 6.26847 41.5284 8.57891 41.5566C10.8894 41.5847 13.1164 40.6938 14.77 39.08Z" fill="black"/>
<path d="M338.42 54.13C333.548 51.0972 327.897 49.5507 322.16 49.68C316.04 49.5342 309.988 50.9961 304.61 53.92C300.798 56.1062 297.274 58.7601 294.12 61.82V24.36C294.112 21.9418 293.149 19.6246 291.441 17.9128C289.733 16.201 287.418 15.2332 285 15.22C283.802 15.1995 282.614 15.429 281.51 15.8939C280.406 16.3588 279.412 17.0489 278.59 17.92C277.753 18.7685 277.094 19.7748 276.649 20.8803C276.205 21.9858 275.984 23.1685 276 24.36V128.36C275.987 129.546 276.21 130.722 276.658 131.82C277.105 132.918 277.768 133.915 278.606 134.754C279.445 135.592 280.442 136.255 281.54 136.702C282.638 137.15 283.814 137.373 285 137.36C286.191 137.377 287.373 137.158 288.479 136.715C289.584 136.273 290.591 135.615 291.44 134.78C292.312 133.96 293.004 132.968 293.47 131.866C293.937 130.764 294.168 129.577 294.15 128.38V80.92C297.312 76.9172 301.069 73.4232 305.29 70.56C309.263 67.9699 313.918 66.6225 318.66 66.69C329.48 66.69 334.52 72.34 334.52 84.47V128.39C334.504 129.576 334.726 130.754 335.172 131.853C335.619 132.952 336.281 133.951 337.12 134.79C337.959 135.629 338.958 136.291 340.057 136.738C341.156 137.184 342.334 137.406 343.52 137.39C344.711 137.407 345.893 137.188 346.999 136.745C348.104 136.303 349.111 135.645 349.96 134.81C350.834 133.992 351.527 133 351.994 131.897C352.461 130.795 352.691 129.607 352.67 128.41V82.86C352.71 77.1115 351.456 71.4278 349 66.23C346.687 61.2786 343.018 57.0834 338.42 54.13Z" fill="black"/>
<path d="M431.39 55.2C424.468 51.574 416.77 49.6798 408.955 49.6798C401.14 49.6798 393.442 51.574 386.52 55.2C380.091 58.8564 374.875 64.3186 371.52 70.91C367.937 78.0398 366.136 85.9317 366.27 93.91C366.135 101.888 367.936 109.781 371.52 116.91C374.875 123.501 380.091 128.964 386.52 132.62C393.442 136.246 401.14 138.14 408.955 138.14C416.77 138.14 424.468 136.246 431.39 132.62C437.83 128.979 443.08 123.555 446.51 117C450.146 109.887 451.977 101.988 451.84 94C451.976 86.0123 450.146 78.1137 446.51 71C443.108 64.3788 437.855 58.8894 431.39 55.2ZM430 109.53C427.85 113.331 424.653 116.434 420.79 118.47C417.116 120.339 413.052 121.313 408.93 121.313C404.808 121.313 400.744 120.339 397.07 118.47C393.218 116.448 390.041 113.344 387.93 109.54C385.54 105.46 384.33 100.15 384.33 93.76C384.33 87.37 385.54 82.24 387.93 78.15C390.03 74.3671 393.204 71.2911 397.05 69.31C400.779 67.4614 404.888 66.5094 409.05 66.53C413.142 66.53 417.179 67.4817 420.84 69.31C424.707 71.2961 427.906 74.3733 430.04 78.16C432.48 82.25 433.72 87.5 433.72 93.76C433.72 100.02 432.47 105.44 430 109.53Z" fill="black"/>
<path d="M502 120.36C501.251 120.349 500.503 120.419 499.77 120.57L498.28 120.92C496.367 121.5 494.379 121.796 492.38 121.8C490.098 121.893 487.831 121.394 485.8 120.35C484.09 119.35 483.74 116.35 483.74 113.96V69.73H500.07C501.146 69.7567 502.216 69.5569 503.21 69.1434C504.204 68.7299 505.1 68.1121 505.84 67.33C506.964 66.204 507.726 64.7687 508.03 63.2074C508.334 61.646 508.165 60.0296 507.546 58.5644C506.926 57.0993 505.884 55.8521 504.553 54.9821C503.221 54.1121 501.66 53.6587 500.07 53.68H483.76V37.16C483.76 34.7545 482.804 32.4475 481.103 30.7465C479.403 29.0456 477.096 28.09 474.69 28.09C472.284 28.09 469.978 29.0456 468.277 30.7465C466.576 32.4475 465.62 34.7545 465.62 37.16V115.24C465.62 130.24 474.33 138.17 490.8 138.17C495.675 138.189 500.495 137.138 504.92 135.09C506.305 134.471 507.481 133.463 508.305 132.188C509.128 130.914 509.564 129.427 509.56 127.91C509.573 126.903 509.374 125.904 508.976 124.979C508.578 124.054 507.99 123.223 507.25 122.54C506.562 121.848 505.744 121.298 504.843 120.924C503.942 120.55 502.976 120.358 502 120.36Z" fill="black"/>
<path d="M620 55C614.006 51.5428 607.209 49.722 600.29 49.72C590.818 49.6739 581.672 53.1733 574.65 59.53V24.36C574.685 23.1503 574.472 21.9464 574.025 20.8218C573.577 19.6973 572.905 18.6759 572.05 17.8202C571.194 16.9645 570.173 16.2925 569.048 15.8454C567.924 15.3983 566.72 15.1855 565.51 15.22C564.312 15.1982 563.123 15.4272 562.019 15.8922C560.916 16.3572 559.921 17.0479 559.1 17.92C558.265 18.7694 557.607 19.7759 557.165 20.8814C556.722 21.9869 556.503 23.1692 556.52 24.36V128.36C556.504 129.546 556.726 130.724 557.172 131.823C557.619 132.922 558.281 133.921 559.12 134.76C559.959 135.599 560.958 136.261 562.057 136.708C563.156 137.154 564.334 137.376 565.52 137.36C566.709 137.376 567.89 137.156 568.993 136.714C570.097 136.271 571.102 135.614 571.95 134.78C572.824 133.962 573.517 132.97 573.984 131.867C574.451 130.765 574.681 129.577 574.66 128.38C581.681 134.738 590.828 138.237 600.3 138.19C607.218 138.182 614.012 136.354 620 132.89C626.339 129.223 631.557 123.895 635.09 117.48C638.91 110.78 640.85 102.85 640.85 93.93C640.85 85.01 638.91 77.07 635.09 70.37C631.551 63.97 626.334 58.6561 620 55ZM616 114C611.5 118.7 605.68 121 598.2 121C593.664 121.017 589.188 119.958 585.14 117.91C581.214 115.923 577.664 113.266 574.65 110.06V77.79C577.667 74.5869 581.216 71.931 585.14 69.94C589.188 67.8934 593.664 66.8345 598.2 66.85C605.67 66.85 611.5 69.13 616 73.85C620.5 78.57 622.72 85.27 622.72 93.95C622.72 102.63 620.46 109.36 616 114Z" fill="black"/>
<path d="M900.9 54.13C896.025 51.0958 890.371 49.5493 884.63 49.68C878.513 49.5359 872.466 50.9978 867.09 53.92C863.272 56.1062 859.745 58.7637 856.59 61.83V59.62C856.587 57.1967 855.623 54.8735 853.91 53.16C852.196 51.4465 849.873 50.4826 847.45 50.48C846.252 50.4582 845.063 50.6872 843.959 51.1522C842.855 51.6172 841.861 52.3079 841.04 53.18C840.205 54.0294 839.547 55.0359 839.104 56.1414C838.662 57.2469 838.443 58.4292 838.46 59.62V128.39C838.447 129.576 838.67 130.752 839.118 131.85C839.565 132.948 840.228 133.945 841.066 134.784C841.904 135.622 842.902 136.285 844 136.732C845.098 137.18 846.274 137.403 847.46 137.39C848.649 137.406 849.829 137.186 850.933 136.744C852.037 136.301 853.042 135.644 853.89 134.81C854.764 133.992 855.457 133 855.924 131.897C856.39 130.795 856.621 129.607 856.6 128.41V80.92C859.767 76.922 863.523 73.4287 867.74 70.56C871.717 67.9707 876.375 66.6236 881.12 66.69C891.94 66.69 896.97 72.34 896.97 84.47V128.39C896.956 129.576 897.18 130.752 897.628 131.85C898.075 132.948 898.738 133.945 899.576 134.784C900.415 135.622 901.412 136.285 902.51 136.732C903.608 137.18 904.784 137.403 905.97 137.39C907.161 137.407 908.343 137.188 909.449 136.745C910.554 136.303 911.561 135.645 912.41 134.81C913.282 133.99 913.974 132.998 914.44 131.896C914.907 130.794 915.138 129.607 915.12 128.41V82.86C915.175 77.1154 913.938 71.4318 911.5 66.23C909.181 61.276 905.506 57.0805 900.9 54.13Z" fill="black"/>
<path d="M992.33 98.22C989.406 94.7613 985.667 92.0843 981.45 90.43C976.331 88.515 971.102 86.9087 965.79 85.62C959.66 84.27 955.11 82.87 952.26 81.44C951.189 81.001 950.278 80.2441 949.65 79.2714C949.023 78.2987 948.709 77.1569 948.75 76C948.75 73.31 950.09 71.15 952.82 69.4C955.82 67.51 960.01 66.56 965.41 66.56C971.465 66.5995 977.48 67.5536 983.25 69.39C984.072 69.614 984.918 69.7382 985.77 69.76C986.864 69.7809 987.95 69.5719 988.957 69.1464C989.965 68.7209 990.872 68.0884 991.62 67.29C992.38 66.5403 992.981 65.6463 993.39 64.6605C993.799 63.6747 994.006 62.6171 994 61.55C993.991 59.8685 993.464 58.2307 992.49 56.86C991.468 55.3572 989.943 54.2686 988.19 53.79C980.545 51.0244 972.47 49.6329 964.34 49.68C953.9 49.68 945.72 52.2 940.02 57.17C937.198 59.5806 934.952 62.5919 933.445 65.9832C931.937 69.3746 931.208 73.0602 931.31 76.77C931.31 82.55 932.95 87.29 936.18 90.86C939.265 94.2979 943.12 96.957 947.43 98.62C952.594 100.545 957.883 102.119 963.26 103.33C967.726 104.371 972.098 105.783 976.33 107.55C979.08 108.85 979.4 110.46 979.4 111.55C979.4 113.92 979.4 121.15 963.4 121.15C959.66 121.195 955.929 120.782 952.29 119.92C948.865 119.067 945.52 117.923 942.29 116.5C941.16 115.983 939.933 115.71 938.69 115.7C937.6 115.673 936.517 115.883 935.516 116.314C934.515 116.746 933.619 117.389 932.89 118.2C931.438 119.736 930.638 121.776 930.66 123.89C930.632 125.215 930.935 126.525 931.543 127.702C932.151 128.88 933.044 129.886 934.14 130.63L934.31 130.73C943.516 135.715 953.841 138.272 964.31 138.16C974.52 138.16 982.59 135.76 988.31 131.02C991.065 128.831 993.281 126.04 994.787 122.86C996.294 119.681 997.051 116.198 997 112.68C997 106.72 995.43 101.85 992.33 98.22Z" fill="black"/>
<path d="M714.23 55.15C707.786 51.185 700.334 49.1673 692.77 49.34C684.02 49.34 676.51 51.44 670.46 55.59C664.505 59.6227 659.834 65.2801 657 71.89C654.091 78.73 652.627 86.0974 652.7 93.53C652.7 107.38 656.56 118.32 664.18 126.04C671.8 133.76 682.48 137.71 695.93 137.71C706.048 138.164 716.077 135.636 724.77 130.44C729.05 127.97 729.94 124.89 729.94 122.75C729.96 121.624 729.74 120.507 729.295 119.472C728.851 118.438 728.191 117.51 727.36 116.75C725.772 115.257 723.67 114.434 721.49 114.45C720.177 114.436 718.878 114.73 717.7 115.31C714.717 116.806 711.582 117.979 708.35 118.81C704.696 119.665 700.952 120.068 697.2 120.01C689.4 120.01 683.3 118.11 679.05 114.35C675.524 111.137 673.119 106.879 672.19 102.2L671.83 100.7H723.24C724.476 100.755 725.709 100.556 726.864 100.113C728.019 99.6704 729.071 98.9944 729.953 98.1274C730.835 97.2604 731.528 96.2208 731.991 95.0737C732.453 93.9265 732.674 92.6964 732.64 91.46C732.705 84.2469 731.118 77.1146 728 70.61C724.937 64.2762 720.169 58.9222 714.23 55.15ZM671.71 84.79C671.86 83.79 672.07 82.87 672.07 82.87C672.568 80.071 673.611 77.3971 675.14 75C677.062 71.9849 679.783 69.5618 683 68C686.038 66.5216 689.372 65.7534 692.75 65.7534C696.128 65.7534 699.462 66.5216 702.5 68C705.753 69.5631 708.519 71.9831 710.5 75C712.346 77.8302 713.52 81.0458 713.93 84.4L713.98 84.75L671.71 84.79Z" fill="black"/>
<path d="M801.78 54.41C796.45 51.27 789.87 49.68 782.21 49.68C772.436 49.717 762.769 51.7272 753.79 55.59C752.212 56.1574 750.854 57.21 749.911 58.5969C748.967 59.9837 748.488 61.6336 748.54 63.31C748.521 64.3462 748.714 65.3753 749.106 66.3347C749.498 67.2941 750.081 68.1635 750.82 68.89C751.52 69.6198 752.362 70.1985 753.294 70.5906C754.226 70.9827 755.229 71.1799 756.24 71.17C757.137 71.1442 758.027 71.0064 758.89 70.76C762.262 69.6168 765.698 68.6718 769.18 67.93C772.631 67.2771 776.138 66.9656 779.65 67C786.53 67 791.65 68.41 794.73 71.19C797.67 73.82 799.21 78.19 799.34 84.32V86C792.79 84.82 781.69 83.53 770.64 85.39C763.47 86.47 757.64 88.66 753.17 91.99C749.956 94.2968 747.355 97.3559 745.596 100.9C743.837 104.444 742.973 108.365 743.08 112.32C742.999 117.156 744.323 121.911 746.89 126.01C749.379 129.944 752.938 133.087 757.15 135.07C761.473 137.137 766.208 138.197 771 138.17C782.12 138.17 791.64 134.85 799.36 128.3V128.39C799.347 129.576 799.57 130.752 800.018 131.85C800.465 132.948 801.128 133.945 801.966 134.784C802.805 135.622 803.802 136.285 804.9 136.732C805.998 137.18 807.174 137.403 808.36 137.39C809.551 137.407 810.733 137.188 811.839 136.745C812.944 136.303 813.951 135.645 814.8 134.81C815.671 133.99 816.361 132.997 816.826 131.895C817.291 130.793 817.52 129.606 817.5 128.41V83C817.542 77.3532 816.243 71.7771 813.71 66.73C811.013 61.5531 806.868 57.2725 801.78 54.41ZM799.35 110.88C796.457 114.013 793.034 116.613 789.24 118.56C785.302 120.669 780.907 121.781 776.44 121.8C770.83 121.8 766.83 120.8 764.56 118.73C763.443 117.729 762.564 116.491 761.986 115.107C761.408 113.723 761.147 112.228 761.22 110.73C761.22 106 764.52 102.81 770.95 101.17C771.09 101.17 771.53 101.03 771.67 101C782.77 98.6 794.82 100.93 799.35 101.92V110.88Z" fill="black"/>
</g>
<defs>
<clipPath id="clip0_60_162">
<rect width="997" height="153.39" fill="white"/>
</clipPath>
</defs>
</svg>
