<svg width="24" height="24" viewBox="0 0 24 24" fill="none" xmlns="http://www.w3.org/2000/svg">
<g clip-path="url(#clip0_40_27)">
<path d="M20.4472 20.4485H16.8911V14.8795C16.8911 13.5515 16.8674 11.842 15.0416 11.842C13.1895 11.842 12.9061 13.2889 12.9061 14.7828V20.4482H9.35009V8.99596H12.7639V10.561H12.8117C13.5078 9.37082 14.8021 8.65996 16.1799 8.7111C19.7841 8.7111 20.4487 11.0819 20.4487 14.1661L20.4472 20.4485ZM5.33768 7.43053C4.19797 7.43073 3.27389 6.50696 3.27369 5.36723C3.27348 4.2275 4.19723 3.3034 5.33694 3.3032C6.47664 3.30299 7.40072 4.22676 7.40093 5.36649C7.40103 5.91381 7.1837 6.43875 6.79677 6.82583C6.40984 7.21291 5.88498 7.43043 5.33768 7.43053ZM7.1157 20.4485H3.55595V8.99596H7.1157V20.4485ZM22.22 0.000813011H1.76903C0.802478 -0.0100948 0.00984316 0.764154 -0.00195312 1.73072V22.267C0.00943929 23.234 0.80201 24.009 1.76903 23.9989H22.22C23.189 24.0109 23.9846 23.2359 23.9981 22.267V1.72924C23.9842 0.760763 23.1885 -0.0134417 22.22 -0.000824511" fill="#6C7594"/>
</g>
<defs>
<clipPath id="clip0_40_27">
<rect width="24" height="24" fill="white"/>
</clipPath>
</defs>
</svg>
