<svg width="24" height="24" viewBox="0 0 24 24" fill="none" xmlns="http://www.w3.org/2000/svg">
<path d="M21.3823 7.21903C21.3968 7.42903 21.3968 7.63903 21.3968 7.85097C21.3968 14.3087 16.4806 21.7565 7.49129 21.7565V21.7526C4.83581 21.7565 2.23548 20.9958 0 19.5616C0.386129 19.6081 0.774194 19.6313 1.16323 19.6323C3.36387 19.6342 5.50161 18.8958 7.2329 17.5361C5.14161 17.4965 3.30774 16.1329 2.6671 14.1423C3.39968 14.2835 4.15452 14.2545 4.87355 14.0581C2.59355 13.5974 0.953226 11.5942 0.953226 9.26774C0.953226 9.24645 0.953226 9.22613 0.953226 9.20581C1.63258 9.58419 2.39323 9.79419 3.17129 9.81742C1.02387 8.38226 0.361935 5.52548 1.65871 3.29193C4.14 6.34516 7.80097 8.20129 11.731 8.39774C11.3371 6.70032 11.8752 4.92161 13.1448 3.72839C15.1132 1.87806 18.209 1.9729 20.0594 3.94032C21.1539 3.72452 22.2029 3.3229 23.1629 2.75387C22.7981 3.88516 22.0345 4.84613 21.0145 5.45677C21.9832 5.34258 22.9297 5.08323 23.821 4.68742C23.1648 5.67064 22.3384 6.5271 21.3823 7.21903Z" fill="#6C7594"/>
</svg>
